<svg width="48" height="48" viewBox="0 0 48 48" fill="none" xmlns="http://www.w3.org/2000/svg">
<path d="M0 8C0 3.58172 3.58172 0 8 0H40C44.4183 0 48 3.58172 48 8V40C48 44.4183 44.4183 48 40 48H8C3.58172 48 0 44.4183 0 40V8Z" fill="#2E3038"/>
<path fill-rule="evenodd" clip-rule="evenodd" d="M10.9918 10.9917C11.4252 10.5583 12.1254 10.5583 12.5588 10.9917L21.3603 19.7932C21.3951 19.8206 21.4286 19.8504 21.4607 19.8825L27.1508 25.5726C27.1825 25.6043 27.212 25.6375 27.2391 25.672L30.0954 28.5283C30.179 28.5757 30.2577 28.6351 30.3292 28.7065C30.4017 28.7791 30.4624 28.8591 30.5112 28.9441L37.0083 35.4412C37.4418 35.8747 37.4418 36.5748 37.0083 37.0082C36.5749 37.4416 35.8748 37.4416 35.4414 37.0082L29.478 31.0449C28.3949 31.8946 27.1279 32.4849 25.7727 32.7629C25.555 32.8076 25.3363 32.844 25.117 32.8722V35.1077H28.451C29.0622 35.1077 29.5623 35.6078 29.5623 36.2191C29.5623 36.8303 29.0622 37.3304 28.451 37.3304H24.0241C24.018 37.3305 24.0118 37.3306 24.0057 37.3306C23.9995 37.3306 23.9933 37.3305 23.9872 37.3304H19.5602C18.949 37.3304 18.4489 36.8414 18.4489 36.2191C18.4489 35.6078 18.949 35.1077 19.5602 35.1077H22.8943V32.8783C22.1094 32.7816 21.3358 32.5798 20.5938 32.274C18.9601 31.596 17.5599 30.4514 16.5819 28.9733C15.615 27.4952 15.1038 25.7615 15.1149 23.9945V21.7718C15.1149 21.1605 15.615 20.6604 16.2262 20.6604C16.8375 20.6604 17.3376 21.1605 17.3376 21.7718V24.0056C17.3265 25.3392 17.7154 26.6394 18.4489 27.7397C19.1824 28.8399 20.2382 29.7068 21.4607 30.218C22.1707 30.5122 22.9176 30.6776 23.6716 30.7141C23.7771 30.6806 23.8894 30.6625 24.0057 30.6625C24.1206 30.6625 24.2316 30.6802 24.3361 30.713C24.6717 30.6956 25.0069 30.6529 25.3392 30.5847C26.2655 30.3947 27.1354 30.0129 27.8967 29.4635L26.261 27.8279C25.8343 28.0783 25.366 28.256 24.8725 28.3509C24.5836 28.4176 24.2946 28.4398 24.0057 28.4398C23.4278 28.4398 22.8499 28.3287 22.3053 28.0953C21.494 27.7619 20.805 27.1951 20.316 26.4616C19.8159 25.7393 19.5603 24.8835 19.5603 24.0056V21.1272L10.9918 12.5587C10.5584 12.1253 10.5584 11.4251 10.9918 10.9917ZM24.5744 26.1412L21.7942 23.3611L21.783 23.3499V23.9945C21.783 24.439 21.9163 24.8613 22.1608 25.2281C22.4053 25.5948 22.7498 25.8726 23.161 26.0504C23.5611 26.2172 24.0057 26.2616 24.4391 26.1727C24.481 26.1622 24.523 26.1517 24.5744 26.1412Z" fill="#EFF0FA"/>
<path d="M27.3397 22.1496C26.7284 22.1496 26.2283 21.6495 26.2283 21.0383V15.1037C26.2283 14.5481 26.0283 14.0257 25.6504 13.6145C25.2837 13.2033 24.7725 12.9477 24.2279 12.8922C23.6834 12.8366 23.1277 12.9811 22.6832 13.3145C22.2386 13.6368 21.9386 14.1257 21.8274 14.6592C21.7052 15.2593 21.1162 15.6483 20.516 15.526C19.9159 15.4038 19.5269 14.8259 19.6492 14.2258C19.8715 13.1478 20.4827 12.192 21.3718 11.5363C22.2609 10.8806 23.3611 10.5806 24.4613 10.6917C25.5615 10.8028 26.5729 11.314 27.3175 12.1364C28.0398 12.9477 28.451 14.0035 28.451 15.1148V21.0494C28.451 21.6606 27.9509 22.1496 27.3397 22.1496Z" fill="#EFF0FA"/>
<path d="M32.8964 21.7718C32.8964 21.1605 32.3963 20.6604 31.785 20.6604C31.1738 20.6604 30.6737 21.1605 30.6737 21.7718V23.9945C30.6737 24.3945 30.6404 24.7835 30.5626 25.1725C30.4514 25.7726 30.8626 26.3505 31.4627 26.4616C32.0629 26.5728 32.6408 26.1616 32.7519 25.5614C32.8519 25.0391 32.8964 24.5168 32.8964 23.9945V21.7718Z" fill="#EFF0FA"/>
</svg>
