<svg width="48" height="48" viewBox="0 0 48 48" fill="none" xmlns="http://www.w3.org/2000/svg">
<rect width="48" height="48" rx="8" fill="#2E3038"/>
<path fill-rule="evenodd" clip-rule="evenodd" d="M20.9129 11.9684C21.7464 11.1349 22.8769 10.6666 24.0556 10.6666C25.2344 10.6666 26.3648 11.1349 27.1983 11.9684C28.0318 12.8019 28.5001 13.9323 28.5001 15.1111V24C28.5001 25.1787 28.0318 26.3092 27.1983 27.1427C26.3648 27.9762 25.2344 28.4444 24.0556 28.4444C22.8769 28.4444 21.7464 27.9762 20.9129 27.1427C20.0794 26.3092 19.6112 25.1787 19.6112 24V15.1111C19.6112 13.9323 20.0794 12.8019 20.9129 11.9684ZM24.0556 12.8888C23.4662 12.8888 22.901 13.123 22.4843 13.5397C22.0675 13.9565 21.8334 14.5217 21.8334 15.1111V24C21.8334 24.5893 22.0675 25.1546 22.4843 25.5713C22.901 25.9881 23.4662 26.2222 24.0556 26.2222C24.645 26.2222 25.2102 25.9881 25.627 25.5713C26.0437 25.1546 26.2778 24.5893 26.2778 24V15.1111C26.2778 14.5217 26.0437 13.9565 25.627 13.5397C25.2102 13.123 24.645 12.8888 24.0556 12.8888Z" fill="white"/>
<path fill-rule="evenodd" clip-rule="evenodd" d="M16.2779 20.6666C16.8915 20.6666 17.389 21.1641 17.389 21.7777V24C17.389 25.7681 18.0913 27.4638 19.3416 28.714C20.5918 29.9642 22.2875 30.6666 24.0556 30.6666C25.8237 30.6666 27.5194 29.9642 28.7697 28.714C30.0199 27.4638 30.7223 25.7681 30.7223 24V21.7777C30.7223 21.1641 31.2198 20.6666 31.8334 20.6666C32.4471 20.6666 32.9445 21.1641 32.9445 21.7777V24C32.9445 26.3574 32.008 28.6184 30.341 30.2854C28.674 31.9523 26.4131 32.8889 24.0556 32.8889C21.6982 32.8889 19.4372 31.9523 17.7702 30.2854C16.1033 28.6184 15.1667 26.3574 15.1667 24V21.7777C15.1667 21.1641 15.6642 20.6666 16.2779 20.6666Z" fill="white"/>
<path fill-rule="evenodd" clip-rule="evenodd" d="M24.0556 30.6666C24.6693 30.6666 25.1667 31.1641 25.1667 31.7777V36.2222C25.1667 36.8358 24.6693 37.3333 24.0556 37.3333C23.442 37.3333 22.9445 36.8358 22.9445 36.2222V31.7777C22.9445 31.1641 23.442 30.6666 24.0556 30.6666Z" fill="white"/>
<path fill-rule="evenodd" clip-rule="evenodd" d="M18.5001 36.2221C18.5001 35.6085 18.9975 35.111 19.6112 35.111H28.5001C29.1137 35.111 29.6112 35.6085 29.6112 36.2221C29.6112 36.8358 29.1137 37.3332 28.5001 37.3332H19.6112C18.9975 37.3332 18.5001 36.8358 18.5001 36.2221Z" fill="white"/>
</svg>
