<svg width="48" height="48" viewBox="0 0 48 48" fill="none" xmlns="http://www.w3.org/2000/svg">
<path d="M0 8C0 3.58172 3.58172 0 8 0H40C44.4183 0 48 3.58172 48 8V40C48 44.4183 44.4183 48 40 48H8C3.58172 48 0 44.4183 0 40V8Z" fill="#C74E5B"/>
<path d="M32.5999 33.7334C32.9005 33.7334 33.1888 33.614 33.4013 33.4014C33.6139 33.1889 33.7333 32.9006 33.7333 32.6L33.7333 16.7334C33.7333 16.4328 33.6139 16.1445 33.4013 15.932C33.1888 15.7194 32.9005 15.6 32.5999 15.6L28.0666 15.6C27.4407 15.6 26.9333 15.0926 26.9333 14.4667C26.9333 13.8408 27.4407 13.3334 28.0666 13.3334L32.5999 13.3334C33.5017 13.3334 34.3665 13.6916 35.0041 14.3292C35.6417 14.9668 35.9999 15.8316 35.9999 16.7334V32.6C35.9999 33.5018 35.6417 34.3666 35.0041 35.0042C34.3665 35.6418 33.5017 36 32.5999 36H28.0666C27.4407 36 26.9333 35.4926 26.9333 34.8667C26.9333 34.2408 27.4407 33.7334 28.0666 33.7334H32.5999Z" fill="#FFEDEC"/>
<path d="M20.9347 31.1348C20.4921 31.5773 19.7745 31.5773 19.3319 31.1348L13.6687 25.4716C13.6567 25.4597 13.645 25.4476 13.6335 25.4351C13.5446 25.3388 13.4754 25.2309 13.426 25.1164C13.3663 24.9786 13.3333 24.8265 13.3333 24.6667C13.3333 24.5067 13.3664 24.3544 13.4263 24.2163C13.4752 24.1032 13.5435 23.9964 13.6311 23.9009C13.6434 23.8875 13.656 23.8744 13.6689 23.8616L19.3319 18.1986C19.7745 17.7561 20.4921 17.7561 20.9347 18.1986C21.3772 18.6412 21.3772 19.3588 20.9347 19.8014L17.2027 23.5334L28.0666 23.5334C28.6925 23.5334 29.1999 24.0408 29.1999 24.6667C29.1999 25.2926 28.6925 25.8 28.0666 25.8H17.2027L20.9347 29.532C21.3772 29.9746 21.3772 30.6922 20.9347 31.1348Z" fill="#FFEDEC"/>
</svg>
