<svg width="48" height="48" viewBox="0 0 48 48" fill="none" xmlns="http://www.w3.org/2000/svg">
<rect width="48" height="48" rx="8" fill="#2E3038"/>
<path fill-rule="evenodd" clip-rule="evenodd" d="M13.8019 12.0592C13.3897 11.6469 12.7214 11.6469 12.3092 12.0592C11.8969 12.4714 11.8969 13.1397 12.3092 13.5519L14.7561 15.9988C14.0677 16.0888 13.4237 16.4034 12.9275 16.8996C12.3336 17.4935 12 18.2989 12 19.1388V29.6943C12 30.5342 12.3336 31.3396 12.9275 31.9335C13.5214 32.5274 14.3268 32.861 15.1667 32.861H26.7778C27.6176 32.861 28.4231 32.5274 29.0169 31.9335C29.3065 31.6439 29.5342 31.304 29.6916 30.9343L35.5314 36.7742C35.9436 37.1864 36.6119 37.1864 37.0242 36.7742C37.4364 36.3619 37.4364 35.6936 37.0242 35.2814L29.6441 27.9013C29.6412 27.8983 29.6382 27.8954 29.6353 27.8924L18.0242 16.2813C18.0213 16.2784 18.0183 16.2755 18.0154 16.2726L13.8019 12.0592ZM16.8404 18.0832L27.8333 29.0761V29.6943C27.8333 29.9743 27.7221 30.2428 27.5242 30.4407C27.3262 30.6387 27.0577 30.7499 26.7778 30.7499H15.1667C14.8867 30.7499 14.6182 30.6387 14.4203 30.4407C14.2223 30.2428 14.1111 29.9743 14.1111 29.6943V19.1388C14.1111 18.8588 14.2223 18.5904 14.4203 18.3924C14.6182 18.1944 14.8867 18.0832 15.1667 18.0832H16.8404ZM23.2522 18.0832H26.7778C27.0577 18.0832 27.3262 18.1944 27.5242 18.3924C27.7221 18.5904 27.8333 18.8588 27.8333 19.1388V22.6643C27.8333 22.9443 27.9445 23.2128 28.1425 23.4107L29.1981 24.4663C29.5646 24.8328 30.1431 24.879 30.5631 24.5752L35.2222 21.2051V29.6943C35.2222 30.2773 35.6948 30.7499 36.2778 30.7499C36.8607 30.7499 37.3333 30.2773 37.3333 29.6943V19.1388C37.3333 18.7423 37.1111 18.3792 36.758 18.1988C36.4049 18.0184 35.9804 18.0511 35.6591 18.2835L30.0547 22.3374L29.9444 22.2271V19.1388C29.9444 18.2989 29.6108 17.4935 29.0169 16.8996C28.4231 16.3057 27.6176 15.9721 26.7778 15.9721H23.2522C22.6693 15.9721 22.1967 16.4447 22.1967 17.0277C22.1967 17.6106 22.6693 18.0832 23.2522 18.0832Z" fill="white"/>
</svg>
